HIERARCHY
ROOT pelvis
{
  OFFSET 0 100 0
  CHANNELS 6 Xposition Yposition Zposition Zrotation Xrotation Yrotation
  JOINT pelvis_right_femur
  {
    OFFSET -10.78128 -3.44521 -0.5502486
    CHANNELS 3 Zrotation Xrotation Yrotation
    JOINT right_femur_tibia
    {
      OFFSET -0.8047443 -44.0398 -0.1307829
      CHANNELS 3 Zrotation Xrotation Yrotation
      JOINT right_tibia_foot
      {
        OFFSET 3.006224 -47.83518 -5
        CHANNELS 3 Zrotation Xrotation Yrotation
        End Site
        {
          OFFSET 0 -5 15
        }
      }
    }
  }
  JOINT pelvis_left_femur
  {
    OFFSET 10.78128 -3.44521 -0.5502486
    CHANNELS 3 Zrotation Xrotation Yrotation
    JOINT left_femur_tibia
    {
      OFFSET 0.8047443 -44.0398 -0.1307829
      CHANNELS 3 Zrotation Xrotation Yrotation
      JOINT left_tibia_foot
      {
        OFFSET -4.370144 -48.10324 -4.275266
        CHANNELS 3 Zrotation Xrotation Yrotation
        End Site
        {
          OFFSET 0 -5 15
        }
      }
    }
  }
  JOINT pelvis_spine1
  {
    OFFSET 0 6.468898 -3.129235
    CHANNELS 3 Zrotation Xrotation Yrotation
    JOINT spine1
    {
      OFFSET 0 23.15396 4.99043
      CHANNELS 3 Zrotation Xrotation Yrotation
      JOINT spine2
      {
        OFFSET 0 20.79997 -5.064912
        CHANNELS 3 Zrotation Xrotation Yrotation
        JOINT neck
        {
          OFFSET 0 14.38658 9.616178
          CHANNELS 3 Zrotation Xrotation Yrotation
          End Site
          {
            OFFSET 0 20 0
          }
        }
      }
      JOINT right_manubrium
      {
        OFFSET -5.722621 16.35077 3.967754
        CHANNELS 3 Zrotation Xrotation Yrotation
        JOINT right_clavicle
        {
          OFFSET -13.16364 1.694482 -4.693211
          CHANNELS 3 Zrotation Xrotation Yrotation
          JOINT right_humerus
          {
            OFFSET -28.5034 -0.3100689 -2.792744
            CHANNELS 3 Zrotation Xrotation Yrotation
            JOINT right_radius
            {
              OFFSET -25.15693 0.02248979 -1.271978
              CHANNELS 3 Zrotation Xrotation Yrotation
              End Site
              {
                OFFSET -15 0 0
              }
            }
          }
        }
      }
      JOINT left_manubrium
      {
        OFFSET 5.722621 16.35077 3.967754
        CHANNELS 3 Zrotation Xrotation Yrotation
        JOINT left_clavicle
        {
          OFFSET 13.16364 1.694482 -4.693211
          CHANNELS 3 Zrotation Xrotation Yrotation
          JOINT left_humerus
          {
            OFFSET 29.39168 -1.063119 -2.237045
            CHANNELS 3 Zrotation Xrotation Yrotation
            JOINT left_radius
            {
              OFFSET 24.59957 -0.9528479 0.9047498
              CHANNELS 3 Zrotation Xrotation Yrotation
              End Site
              {
                OFFSET 15 -0 -0
              }
            }
          }
        }
      }
    }
  }
}
MOTION
Frames: 11
Frame Time: 0.0416666666667
0 103.5113 0 -0.09112584 -1.228833 0.04749573 0.5866947 -13.6464 9.835179 -0 38.7395 -0 -5.088007 -12.12183 -3.906244 -5.352886 7.096337 -21.32697 -0 9.020019 -0 12.22605 -16.30202 28.11765 -1.661886 -6.369199 4.907552 -0.8335934 11.71168 -5.880124 0.5110347 20.22738 9.301532 6.900562 -21.68723 7.187319 10.48929 -18.72202 11.9896 83.64124 39.05614 -18.07341 -0 0 17.6457 -9.590381 8.5991 3.814609 8.403169 -23.9881 -2.858738 -98.06603 25.03166 22.01632 0 0 -5.283003 -1.431203 26.92477 4.960954
0.2013616 103.519 1.140085 -0.09409866 -1.231118 0.02095013 1.456264 -16.84441 9.726818 -0 42.0155 -0 -5.566071 -11.58525 -4.498207 -5.400707 8.028156 -21.15913 -0 8.60032 -0 11.70444 -16.88164 27.96289 -1.762817 -5.488514 4.560664 -0.7927813 11.54665 -6.102451 0.5542768 20.00609 9.713448 7.391726 -22.15886 7.39001 10.35041 -18.73564 11.85872 83.41799 38.75765 -17.77988 -0 0 17.81504 -10.02113 8.511417 4.06832 8.125499 -23.81459 -2.995308 -97.71439 25.23816 22.20167 0 0 -5.158822 -1.517723 26.27416 5.202124
0.361618 103.6115 2.569881 -0.1023307 -1.262842 -0.2389921 2.491051 -19.86215 9.38048 -0 42.94832 -0 -6.026235 -10.85795 -4.263699 -5.442527 9.199083 -20.88194 -0 8.105691 -0 11.11669 -17.45422 27.82966 -2.077901 -4.526088 4.152113 -0.8400454 11.29184 -6.41397 0.3033805 19.49016 10.01771 7.657322 -22.52407 7.168264 10.34525 -18.68321 11.84052 83.3904 38.47984 -17.64306 -0 0 17.7511 -10.36163 8.439375 4.241273 7.847672 -23.58594 -3.214046 -97.55718 25.54532 22.40887 0 0 -5.091229 -1.364749 25.82691 5.46068
0.5989415 103.6271 4.163925 -0.1122782 -1.300986 -0.55206 3.23756 -22.40091 8.790701 -0 41.53119 -0 -6.477497 -9.79323 -3.318441 -5.562325 10.42006 -20.5274 -0 7.634857 -0 10.54836 -18.11498 27.70028 -2.192928 -3.528971 4.161042 -0.3554715 11.012 -6.354277 0.4482419 19.38894 10.38917 8.091508 -23.08447 7.565457 9.897983 -18.5353 11.69483 83.32665 38.23988 -17.69896 -0 0 17.43557 -10.65207 8.383692 4.337318 8.034394 -23.44245 -3.262402 -97.40343 25.91643 22.34677 0 0 -6.088615 -0.951488 25.64046 5.49974
0.7500549 103.3526 6.060379 -0.1256463 -1.355102 -0.99481 3.578572 -24.29615 7.984967 -0 37.12315 -0 -6.703033 -8.751314 -2.150305 -5.756522 11.86392 -20.05033 -0 7.406865 -0 10.07255 -18.98006 27.52349 -2.362033 -2.445864 4.140627 0.02420267 10.6863 -6.329487 0.5066962 19.21625 10.73038 8.346774 -23.75456 7.998924 9.420516 -18.3021 11.59074 83.46215 38.01582 -17.84849 -0 0 16.99186 -10.87554 8.339806 4.388739 8.068812 -23.28635 -3.369686 -97.48436 26.22678 22.18091 0 0 -7.295079 -0.4750397 25.47036 5.488679
0.9433745 102.9439 8.281542 -0.1359603 -1.389986 -1.286825 3.832515 -26.19655 7.278124 -0 31.44434 -0 -6.806232 -7.385751 -1.110251 -5.981223 13.37477 -19.5038 -0 7.328584 -0 9.619576 -19.93397 27.19575 -2.380775 -1.437378 4.043316 0.3992609 10.36337 -6.397437 0.5585108 18.89922 11.05042 8.509554 -24.57306 8.507548 8.906341 -17.9374 11.52338 83.70508 37.79665 -18.17539 -0 0 16.39843 -11.04765 8.308605 4.400832 7.933059 -22.99868 -3.60132 -97.59954 26.48427 22.08137 0 0 -8.3832 -0.04270564 25.21698 5.526984
1.089173 102.4426 10.83062 -0.1401982 -1.392765 -1.325689 3.813847 -27.49535 6.405947 -0 25.27581 -0 -6.874006 -5.989094 -0.3056946 -6.137555 14.94902 -18.92463 -0 7.451992 -0 9.135095 -20.89966 26.62895 -2.34436 -0.3856354 3.934809 0.7670098 10.02427 -6.539053 0.6104744 18.54654 11.33715 8.620496 -25.39166 9.027629 8.302101 -17.43827 11.52608 84.04355 37.56998 -18.61955 -0 0 15.81133 -11.21437 8.304668 4.475946 7.728234 -22.75599 -3.989242 -97.63909 26.6883 21.83631 0 0 -9.466014 0.3882166 24.88372 5.588781
1.249559 101.8697 13.86881 -0.1330722 -1.338352 -0.9089613 3.723879 -28.55448 5.495335 -0 19.381 -0 -6.930098 -4.960755 0.3182433 -6.210649 16.61224 -18.33273 -0 7.901291 -0 8.553662 -21.75219 25.72751 -2.257805 0.5937783 3.90089 1.172236 9.746682 -6.635082 0.7236904 18.06822 11.56244 8.736411 -26.14325 9.510374 7.704322 -16.64159 11.69475 84.58789 37.31497 -19.32751 -0 0 15.18387 -11.30915 8.327729 4.584781 7.377262 -22.51418 -4.614141 -97.59405 26.82759 21.45017 0 0 -10.49189 0.8377169 24.46879 5.662615
1.314268 101.1772 17.05828 -0.1192712 -1.248359 -0.2067213 3.746864 -29.16683 4.700715 -0 15.13826 -0 -7.131652 -4.299972 0.7643096 -6.146672 18.0812 -17.67433 -0 8.890661 -0 7.858621 -22.40795 24.55154 -2.068732 1.27427 3.592696 1.5746 9.423323 -7.053579 0.6719491 17.8802 11.87013 8.781985 -26.57642 9.940684 7.287855 -16.14964 11.61797 85.05152 37.11134 -19.95175 -0 0 14.51874 -11.35299 8.377329 4.736188 6.899368 -22.30446 -5.129475 -97.34004 26.91282 21.03747 0 0 -11.32189 1.308464 23.96499 5.767982
1.341487 100.5548 20.92965 -0.09917479 -1.117867 0.8182103 3.492903 -28.82598 3.853638 -0 13.55581 -0 -7.589243 -3.856583 0.7315817 -5.969294 19.38341 -16.87912 -0 10.8107 -0 6.950041 -22.55932 23.09333 -1.826339 1.824878 3.159639 2.002891 9.073725 -7.621704 0.4989777 17.85185 12.19624 8.804793 -26.97159 10.27069 6.96521 -15.58924 11.40968 85.60333 36.91326 -20.74271 -0 0 13.71447 -11.36342 8.456954 4.914515 6.406315 -21.94698 -5.642646 -96.97353 26.93634 20.7381 0 0 -12.00344 1.741015 23.37881 5.876187
1.245908 100.0903 25.2446 -0.07692211 -0.9623472 2.042712 3.133532 -27.46367 2.978273 -0 14.53124 -0 -8.227846 -3.381557 0.2460432 -5.628039 19.99414 -16.03371 -0 13.98407 -0 5.847173 -21.94341 21.42261 -1.488625 1.87656 2.754538 2.342015 8.812614 -8.136842 0.2957261 17.95532 12.38536 8.751179 -27.21138 10.39822 6.880412 -15.11768 11.22282 86.14011 36.73176 -21.44668 -0 0 12.92865 -11.38485 8.564702 5.174017 5.919088 -21.64015 -5.900499 -96.44442 26.89074 20.51944 0 0 -12.54024 2.167978 22.72031 5.983819
